<svg xmlns="http://www.w3.org/2000/svg" xmlns:xlink="http://www.w3.org/1999/xlink" viewBox="0 0 512 512"><defs><style>.cls-1,.cls-12{fill:none;}.cls-2{fill:#fff;}.cls-3{fill:#c7c9ca;}.cls-4{fill:#eec495;}.cls-5{fill:#ce7a1f;}.cls-6{fill:#df941c;}.cls-7{fill:#915d4d;}.cls-8{fill:#1d1d1d;}.cls-9{fill:#582830;}.cls-10{fill:#35191e;}.cls-11{clip-path:url(#clip-path);}.cls-12{stroke:#582830;stroke-width:4.72px;}.cls-13{clip-path:url(#clip-path-2);}</style><clipPath id="clip-path"><path class="cls-1" d="M147.2,351.8a60.4,60.4,0,0,1-54.4-60.4c0-31.5,23.5-56.9,54.4-60.5Z"/></clipPath><clipPath id="clip-path-2"><path class="cls-1" d="M364.8,351.8a60.4,60.4,0,0,0,54.4-60.4c0-31.5-23.5-56.9-54.4-60.5Z"/></clipPath></defs><title>avatar_male_tiledesk</title><g id="Livello_2" data-name="Livello 2"><g id="Livello_1-2" data-name="Livello 1"><path class="cls-2" d="M256,506A250,250,0,0,1,79.2,79.2,250,250,0,0,1,432.8,432.8,248.4,248.4,0,0,1,256,506Z"/><path class="cls-3" d="M256,12A243.1,243.1,0,0,1,428.5,83.5,244,244,0,1,1,31.2,351,243.6,243.6,0,0,1,83.5,83.5,243.1,243.1,0,0,1,256,12m0-12C114.6,0,0,114.6,0,256S114.6,512,256,512,512,397.4,512,256,397.4,0,256,0Z"/><path class="cls-4" d="M256,448.6c-9.1,0-21.2-1.9-29-5.5-9.7-4.2-43.6-27.8-55-38.1-15.2-13.9-23-30.8-25.4-60.4s-11.5-134.9-11.5-159c0-34.5,30.8-87.7,120.9-87.7h0c90.1,0,120.9,53.2,120.9,87.7,0,24.1-9.1,130-11.5,159.6s-9.6,46.5-25.4,60.4c-11.4,10.3-45.9,33.9-55,38.1s-19.9,4.9-29,4.9Z"/><path class="cls-5" d="M364.8,252.1s9.7,2.4,27.2-3.7c2.5-10.8,9.1-42.3,9.1-59.8s-1.8-34.5-11.5-49-33.8-24.8-45.9-24.8c-13.9,8.5-46.6,27.8-56.9,39.3-5.4,6.1,2.5,10.9,2.5,10.9s7.2-3,10.2-3.6c15.1-4.3,38.1-1.8,50.8,9.7,14.5,13.3,14.5,44.7,15.1,53.2S364.8,252.1,364.8,252.1Z"/><path class="cls-6" d="M120,249c17.5,6.1,27.2,20.6,27.2,20.6V231.5c0-9.7,0-39.3,14.5-58.6,19.3-26,50.8-32.1,67.1-21.2,8.5,5.4,36.9,33.3,67.1,10.3,18.1-13.9,51.4-45.4,51.4-45.4S329.8,62.8,250,68.9c-33.9,3-71.4-5.5-71.4-5.5s-.6,15.2,5.5,23c-50.2,13.9-66.6,50.2-71.4,78a75.4,75.4,0,0,0-1.8,16.3v8.5C110.9,206.7,117.5,237.6,120,249Z"/><path class="cls-7" d="M298.3,363.9H213.7c-2.4,0-3.6,2.4-2.4,4.9,7.8,13.9,22.3,21.1,40.5,22.3s39.3-7.8,48.9-22.3C301.9,366.9,300.7,363.9,298.3,363.9Z"/><circle class="cls-8" cx="310.4" cy="273.2" r="12.1"/><circle class="cls-8" cx="201.6" cy="273.2" r="12.1"/><path class="cls-9" d="M395.1,224.9a139.1,139.1,0,0,0-278.2,0v48.3h18.2V224.9c-.6-66.5,53.8-121.6,120.9-121s121.5,54.5,120.9,121v54.4h18.2Z"/><path class="cls-10" d="M269.9,411.7,305,402c6.6-1.8,13.3,1.8,14.5,8.5l3,11.5c1.8,6.6-1.8,13.3-8.5,14.5l-35,9.6c-6.7,1.9-13.3-1.8-14.5-8.4l-3.1-11.5C259.6,420.1,263.9,413.5,269.9,411.7Z"/><path class="cls-9" d="M147.2,351.8a60.4,60.4,0,0,1-54.4-60.4c0-31.5,23.5-56.9,54.4-60.5Z"/><g class="cls-11"><rect class="cls-10" x="92.8" y="230.9" width="42.3" height="120.92"/></g><path class="cls-9" d="M364.8,351.8a60.4,60.4,0,0,0,54.4-60.4c0-31.5-23.5-56.9-54.4-60.5Z"/><circle class="cls-8" cx="309.8" cy="273.4" r="12.1"/><circle class="cls-8" cx="201" cy="273.4" r="12.1"/><path class="cls-12" d="M382.4,335c-.6,79.2-78.6,83.5-78.6,83.5"/><path class="cls-10" d="M269.3,411.8l35.1-9.6c6.6-1.9,13.3,1.8,14.5,8.4l3,11.5c1.8,6.7-1.8,13.3-8.5,14.5l-35,9.7c-6.7,1.8-13.3-1.8-14.5-8.5l-3.1-11.5C259,420.3,263.3,413.6,269.3,411.8Z"/><g class="cls-13"><rect class="cls-10" x="376.9" y="230.9" width="48.4" height="120.92"/></g><rect class="cls-1" width="512" height="512"/></g></g></svg>