<svg xmlns="http://www.w3.org/2000/svg" xmlns:xlink="http://www.w3.org/1999/xlink" viewBox="0 0 512 512"><defs><style>.cls-1{fill:none;}.cls-2{fill:#fff;}.cls-3{clip-path:url(#clip-path);}.cls-4{fill:#d5dade;}.cls-5{fill:#141418;}.cls-6{fill:#b4bac7;opacity:0.8;isolation:isolate;}.cls-7{fill:#c7c9ca;}</style><clipPath id="clip-path"><circle class="cls-1" cx="256" cy="256" r="256"/></clipPath></defs><title>avatar_bot_tiledesk</title><g id="Livello_2" data-name="Livello 2"><g id="Livello_1-2" data-name="Livello 1"><circle class="cls-2" cx="256" cy="256" r="256"/><g class="cls-3"><path class="cls-4" d="M102.9,195.2h1.5V336.8h-1.5a36.9,36.9,0,0,1-36.8-36.9V232.1A36.9,36.9,0,0,1,102.9,195.2Z"/><path class="cls-4" d="M315.2,96.2a132.3,132.3,0,0,0-51.9-10.5H248.7a132.4,132.4,0,0,0-51.9,10.6,135,135,0,0,0-71.4,71.3,132.4,132.4,0,0,0-10.6,51.9v127a67.4,67.4,0,0,0,67.1,67.1H330.1a67.4,67.4,0,0,0,67.1-67.1v-127a133.2,133.2,0,0,0-10.6-52,135.3,135.3,0,0,0-71.4-71.3Z"/><path class="cls-5" d="M263.3,76H248.7c-78.9,0-143.5,64.6-143.5,143.5v127a77,77,0,0,0,76.7,76.7H330.1a77,77,0,0,0,76.7-76.7v-127C406.8,140.6,342.2,76,263.3,76ZM397.2,346.5a67.4,67.4,0,0,1-67.1,67.1H181.9a67.4,67.4,0,0,1-67.1-67.1v-127a133.2,133.2,0,0,1,10.6-52,135.3,135.3,0,0,1,71.4-71.3,130.5,130.5,0,0,1,51.9-10.5h14.6a132.4,132.4,0,0,1,51.9,10.6,135,135,0,0,1,71.4,71.3,132.4,132.4,0,0,1,10.6,51.9Z"/><path class="cls-6" d="M97.2,205.6h-.8c-11.9,0-21.6,14.1-21.6,31.5V295c0,17.3,9.7,31.4,21.6,31.4h.8V205.7Z"/><path class="cls-4" d="M409.1,195.2h-1.5V336.8H409a36.9,36.9,0,0,0,36.9-36.9V232.1A37,37,0,0,0,409.1,195.2Z"/><path class="cls-5" d="M184,248a14.8,14.8,0,1,1-14.8,14.8h0A14.8,14.8,0,0,1,184,248m0-11.2a26,26,0,1,0,26,26h0a25.9,25.9,0,0,0-26-26Z"/><path class="cls-5" d="M331.2,248a14.8,14.8,0,1,1-14.8,14.8h0A14.8,14.8,0,0,1,331.2,248m0-11.2a26,26,0,1,0,26,26h0a26,26,0,0,0-26-26Z"/><path class="cls-5" d="M259.2,343.2c-26.3,0-42-12.7-42-34a5.6,5.6,0,0,1,5.4-5.8,5.5,5.5,0,0,1,5.8,5.3v.5c0,19.8,19.3,22.8,30.8,22.8s30.8-3,30.8-22.8a5.6,5.6,0,0,1,5.4-5.8,5.5,5.5,0,0,1,5.8,5.3v.5C301.2,330.5,285.5,343.2,259.2,343.2Z"/><path class="cls-6" d="M206.8,92.4a134.8,134.8,0,0,0-92,127.1v127a67.4,67.4,0,0,0,67.1,67.1h31.2c-85.9-88.9-88.6-229-6.3-321.2Z"/><path class="cls-5" d="M409.1,185.6h-1.5a9.3,9.3,0,0,0-4.6,1.2C388.1,123.5,330.9,76,263.3,76H248.7C181.1,76,124,123.5,109,186.8a9.3,9.3,0,0,0-4.6-1.2h-1.5a46.6,46.6,0,0,0-46.4,46.5v67.8a46.6,46.6,0,0,0,46.4,46.5h2.3v.2a76.9,76.9,0,0,0,76.7,76.6H330.1a76.9,76.9,0,0,0,76.7-76.6v-.2h2.3a46.6,46.6,0,0,0,46.4-46.5V232.1A46.6,46.6,0,0,0,409.1,185.6ZM104.4,336.8h-1.5a36.9,36.9,0,0,1-36.8-36.9V232.1a36.9,36.9,0,0,1,36.8-36.9h1.5Zm292.8-.1c-8.8,5.6-34.4,20.9-58.9,24.5a14.4,14.4,0,1,0-7.1,19.1,15,15,0,0,0,7.4-7.9c22.9-3,45.9-14.9,58.5-22.5a67.5,67.5,0,0,1-67,63.7H181.9a67.4,67.4,0,0,1-67.1-67.1v-127a133.2,133.2,0,0,1,10.6-52,135.3,135.3,0,0,1,71.4-71.3,130.5,130.5,0,0,1,51.9-10.5h14.6a132.4,132.4,0,0,1,51.9,10.6,135,135,0,0,1,71.4,71.3,132.4,132.4,0,0,1,10.6,51.9Zm48.7-36.8a36.9,36.9,0,0,1-36.8,36.9h-1.5V195.2h1.5A37,37,0,0,1,446,232.1Z"/></g><path class="cls-7" d="M256,12a243.1,243.1,0,1,1-95,19.2A243.2,243.2,0,0,1,256,12m0-12C114.6,0,0,114.6,0,256S114.6,512,256,512,512,397.4,512,256,397.4,0,256,0Z"/><rect class="cls-1" width="512" height="512"/></g></g></svg>