<svg id="Livello_1" data-name="Livello 1" xmlns="http://www.w3.org/2000/svg" viewBox="0 0 105.48 105.73"><defs><style>.cls-1{fill:#a7a9ac;}.cls-2{fill:none;}.cls-3{fill:#a6a8ab;}.cls-4{fill:#fefefe;}</style></defs><title>light_avatar_placeholder</title><circle class="cls-1" cx="42.3" cy="41.9" r="3"/><circle class="cls-1" cx="62.6" cy="41.9" r="3"/><path class="cls-1" d="M61.5,87.5H42.4a9.8,9.8,0,0,0,9,7.2h1.1A9.8,9.8,0,0,0,61.5,87.5Z" transform="translate(0.7 0)"/><path class="cls-1" d="M55.9,13.2a4,4,0,0,0-4-3.9A3.91,3.91,0,0,0,48,13.2h0a4.19,4.19,0,0,0,1.9,3.5v4.4h4V16.7A4,4,0,0,0,55.9,13.2Z" transform="translate(0.7 0)"/><path class="cls-1" d="M81.8,77.9V59.2a6,6,0,0,0-6-5.9h-.1V45.9h0a23.8,23.8,0,0,0-47.5,0h0v7.4a6,6,0,0,0-6,5.9V77.9a4,4,0,0,0,1.5,7.4,4.1,4.1,0,0,0,4.48-3.68c0-.11,0-.21,0-.32a4,4,0,0,0-2-3.4V66H27a1.2,1.2,0,0,1,1.2,1.1v5.3A13.4,13.4,0,0,0,41.5,85.8H62.3A13.4,13.4,0,0,0,75.7,72.4h0V67.1A1.1,1.1,0,0,1,76.8,66h1V77.9a4,4,0,0,0,1.5,7.4,4.1,4.1,0,0,0,4.48-3.68c0-.11,0-.21,0-.32A4,4,0,0,0,81.8,77.9ZM56.6,62a2,2,0,1,1,2-2A2,2,0,0,1,56.6,62Zm4.9,0a2,2,0,1,1,2-2A2,2,0,0,1,61.5,62ZM39.9,49a4.11,4.11,0,0,1-4.1-4.1V43.8A13.89,13.89,0,0,1,49.6,29.9h4.6A14,14,0,0,1,68.1,43.8v1.1A4.2,4.2,0,0,1,64,49ZM66.3,62a2,2,0,1,1,2-2A2,2,0,0,1,66.3,62Z" transform="translate(0.7 0)"/><rect class="cls-2" x="0.7" width="104" height="104"/><path class="cls-3" d="M-.7,95.25V94.5a4.81,4.81,0,0,0,.49-1.09c.29-1.7.45-3.43.79-5.13A43,43,0,0,1,12,66.8c4.2-4.44,9.66-7,15.31-9.26l11.25-4.38a1.49,1.49,0,0,0-.13-.42,4.41,4.41,0,0,0-.39-.49,25.24,25.24,0,0,1-6.44-12,59.41,59.41,0,0,1-1.27-9.67c-.31-5.85,0-11.67,2.27-17.22C35,7.59,39,3.63,45.34,2.32c1.63-.34,3.27-.66,4.9-1h4.61c1.22.25,2.46.46,3.67.76,5.2,1.3,9.53,3.81,12.22,8.54a30.75,30.75,0,0,1,3.76,14A57.69,57.69,0,0,1,74,34.55,34.91,34.91,0,0,1,67.64,50.8c-.67.93-1.46,1.77-2.23,2.7a5.45,5.45,0,0,0,.73.42c3.19,1.21,6.35,2.5,9.58,3.6A42.68,42.68,0,0,1,96.3,71.87a36.91,36.91,0,0,1,8,20.26,28.73,28.73,0,0,0,.5,2.87v10.73H-.7V95.25Z" transform="translate(0.7 0)"/><path class="cls-4" d="M50.24,1.34c-1.63.32-3.27.64-4.9,1C39,3.63,35,7.59,32.6,13.31,30.29,18.86,30,24.68,30.33,30.53A59.41,59.41,0,0,0,31.6,40.2a25.24,25.24,0,0,0,6.44,12,4.41,4.41,0,0,1,.39.49,1.49,1.49,0,0,1,.13.42L27.31,57.54C21.66,59.76,16.2,62.36,12,66.8A43,43,0,0,0,.58,88.28c-.34,1.7-.5,3.43-.79,5.13A4.81,4.81,0,0,1-.7,94.5V1.34Z" transform="translate(0.7 0)"/><path class="cls-4" d="M104.78,95a28.73,28.73,0,0,1-.5-2.87,36.91,36.91,0,0,0-8-20.26A42.68,42.68,0,0,0,75.72,57.52c-3.23-1.1-6.39-2.39-9.58-3.6a5.45,5.45,0,0,1-.73-.42c.77-.93,1.56-1.77,2.23-2.7A34.91,34.91,0,0,0,74,34.55a57.69,57.69,0,0,0,.48-9.91,30.75,30.75,0,0,0-3.76-14c-2.69-4.73-7-7.24-12.22-8.54-1.21-.3-2.45-.51-3.67-.76h49.93Z" transform="translate(0.7 0)"/><path class="cls-4" d="M-.7,95.25v0Z" transform="translate(0.7 0)"/></svg>