<svg xmlns="http://www.w3.org/2000/svg" viewBox="0 0 512 512"><defs><style>.cls-1{fill:none;}.cls-2{fill:#4b7ec2;}</style></defs><title>line_avatar_male_tiledesk</title><g id="Livello_2" data-name="Livello 2"><g id="Livello_1-2" data-name="Livello 1"><rect class="cls-1" width="512" height="512"/><path class="cls-2" d="M256,383.5a60.7,60.7,0,0,0,42.9-17.8,7.5,7.5,0,0,0,0-10.7,7.6,7.6,0,0,0-10.8,0,45.4,45.4,0,0,1-64.2,0,7.6,7.6,0,0,0-10.8,0,7.5,7.5,0,0,0,0,10.7A60.7,60.7,0,0,0,256,383.5Z"/><path class="cls-2" d="M196.6,324.1a7.7,7.7,0,0,0,7.7-7.6V283a7.7,7.7,0,0,0-7.7-7.6A7.6,7.6,0,0,0,189,283v33.5A7.6,7.6,0,0,0,196.6,324.1Z"/><path class="cls-2" d="M315.4,324.1a7.6,7.6,0,0,0,7.6-7.6V283a7.6,7.6,0,0,0-15.2,0v33.5A7.6,7.6,0,0,0,315.4,324.1Z"/><path class="cls-2" d="M157.4,436.4Z"/><path class="cls-2" d="M267.6,475.2a134.7,134.7,0,0,0,15.7-2.1,147.8,147.8,0,0,0,23-6.5h0c21.1-8.4,15.5-7.3,22.2-10.6h0a139.9,139.9,0,0,0,14.5-9.6l11.7-9.9c3.5-3.4,6.9-6.9,10.1-10.6h18.3a23,23,0,0,0,21.6-15.2h4.1a24.6,24.6,0,0,0,24.6-24.6V368.8a37.2,37.2,0,0,0,33-36.9V259.1A37.3,37.3,0,0,0,431.9,222v-9.3c0-97-78.9-175.9-175.9-175.9S80.1,115.7,80.1,212.7V222a37.3,37.3,0,0,0-34.5,37.1V266a7.6,7.6,0,1,0,15.2,0v-6.9a22.1,22.1,0,0,1,22-22h7.3a22,22,0,0,1,22,21.8v72.9h0a22.1,22.1,0,0,1-22,22H82.8a22.1,22.1,0,0,1-22-22V296.5a7.6,7.6,0,1,0-15.2,0v35.4a37.3,37.3,0,0,0,37.2,37.2h7.3a37.1,37.1,0,0,0,24.7-9.4,143.6,143.6,0,0,0,42.6,76.7h0c4.1,3.1,7.8,6.6,11.7,9.9.1-.1.2-.2,0,.1a156.6,156.6,0,0,0,14.4,9.6h0c7.2,3.6,14.3,8.3,22.2,10.6h0a146.1,146.1,0,0,0,38.7,8.6m-132-245.9a35.6,35.6,0,0,0-17-7v-9.6C95.4,124.1,167.4,52,256,52s160.6,72.1,160.6,160.7v9.6a35.6,35.6,0,0,0-17,7A143.7,143.7,0,0,0,283.3,97.7,138.1,138.1,0,0,0,256,95.1C179.9,95.1,117.4,154.5,112.4,229.3ZM384.7,239v12.4c-44.3-.7-104.9-7-155.9-31.8-32.2-15.6-45.5-31.4-45.6-31.5a7.5,7.5,0,0,0-8.4-2.4,7.6,7.6,0,0,0-5.1,7.2c0,20-18.6,43.3-42.4,54.9V239c0-71,57.8-128.7,128.7-128.7a131.9,131.9,0,0,1,24.4,2.3A128.8,128.8,0,0,1,384.7,239ZM280.4,458.1a131.9,131.9,0,0,1-24.4,2.3A128.8,128.8,0,0,1,127.3,331.9h0V264.4a101.4,101.4,0,0,0,38.2-26.8c8.3-9.2,14.1-19.2,17.1-29.2,7.9,6.6,20.4,15.5,38.3,24.3,30.4,15,83.3,32.8,163.8,33.9v65.6a128.4,128.4,0,0,1-9.5,48H359.8a22.9,22.9,0,0,0-12.3,42.1A129.2,129.2,0,0,1,280.4,458.1Zm102.7-47.4H359.8a7.7,7.7,0,0,1-7.6-7.7,7.6,7.6,0,0,1,7.6-7.6h23.3a7.7,7.7,0,0,1,7.7,7.6A7.8,7.8,0,0,1,383.1,410.7Zm35.1-24.6a9.4,9.4,0,0,1-9.4,9.3h-4.1A22.8,22.8,0,0,0,391,381.6a139.9,139.9,0,0,0,6.2-21.9,36.9,36.9,0,0,0,21,9.2Zm33-54.2a22,22,0,0,1-22,21.9h-7.3a21.9,21.9,0,0,1-22-21.6v-73h0v-.5a22,22,0,0,1,22-21.4h7.3a22.1,22.1,0,0,1,22,22Z"/><path class="cls-2" d="M169.1,446.4h0C169,446.5,168.9,446.6,169.1,446.4Z"/><path class="cls-2" d="M169.1,446.3h0C169.3,446.1,169.2,446.2,169.1,446.3Z"/></g></g></svg>