<svg xmlns="http://www.w3.org/2000/svg" viewBox="0 0 512 512"><defs><style>.cls-1{fill:none;}.cls-2{fill:#141418;}.cls-2,.cls-3{stroke:#4b7ec2;stroke-miterlimit:10;stroke-width:6px;}.cls-3{fill:#4b7ec2;}</style></defs><title>line_avatar_bot_tiledesk</title><g id="Livello_2" data-name="Livello 2"><g id="Livello_1-2" data-name="Livello 1"><rect class="cls-1" width="512" height="512"/><path class="cls-2" d="M263.9,59.8H248.1C162,59.8,91.6,130.2,91.6,216.2V354.7a83.8,83.8,0,0,0,83.6,83.5H336.8a83.8,83.8,0,0,0,83.6-83.5V216.2C420.4,130.2,350,59.8,263.9,59.8Zm146,294.9a73.3,73.3,0,0,1-73.1,73.1H175.2a73.3,73.3,0,0,1-73.1-73.1V216.2a144.6,144.6,0,0,1,11.5-56.6,147.5,147.5,0,0,1,77.8-77.9,145,145,0,0,1,56.7-11.4h15.8a145.1,145.1,0,0,1,56.7,11.5,147.6,147.6,0,0,1,77.8,77.8,145,145,0,0,1,11.5,56.6Z"/><path class="cls-3" d="M177.5,247.3a16.2,16.2,0,1,1-16.1,16.1h0a16.1,16.1,0,0,1,16.1-16.1m0-12.2a28.4,28.4,0,1,0,28.4,28.3h0a28.3,28.3,0,0,0-28.4-28.3Z"/><path class="cls-3" d="M338,247.3a16.2,16.2,0,0,1,0,32.3,16.3,16.3,0,0,1-16.2-16.2h0A16.2,16.2,0,0,1,338,247.3m0-12.2a28.4,28.4,0,1,0,28.3,28.3h0A28.3,28.3,0,0,0,338,235.1Z"/><path class="cls-3" d="M259.5,362c-28.7,0-45.8-13.9-45.8-37.1a6.2,6.2,0,0,1,5.9-6.4,6.1,6.1,0,0,1,6.3,5.9v.5c0,21.6,21,24.8,33.6,24.8s33.6-3.2,33.6-24.8a6.1,6.1,0,0,1,5.8-6.4,6.2,6.2,0,0,1,6.4,5.9v.5C305.3,348.1,288.2,362,259.5,362Z"/><path class="cls-3" d="M422.9,179.3h-1.7a10.1,10.1,0,0,0-5,1.3C400,111.6,337.7,59.8,263.9,59.8H248.1c-73.8,0-136.1,51.8-152.3,120.8a10.1,10.1,0,0,0-5-1.3H89.1a50.8,50.8,0,0,0-50.7,50.6v74a50.8,50.8,0,0,0,50.7,50.6h2.5v.3a83.9,83.9,0,0,0,83.6,83.5H336.8a83.9,83.9,0,0,0,83.6-83.5v-.3h2.5a50.8,50.8,0,0,0,50.7-50.6v-74A50.9,50.9,0,0,0,422.9,179.3ZM90.8,344.1H89.1a40.3,40.3,0,0,1-40.2-40.2v-74a40.3,40.3,0,0,1,40.2-40.2h1.7Zm319.1-.1c-9.6,6.1-37.5,22.8-64.2,26.7a15.7,15.7,0,1,0-7.8,20.8,15.9,15.9,0,0,0,8.1-8.6c25-3.3,50.1-16.3,63.8-24.5a73.4,73.4,0,0,1-73,69.4H175.2a73.3,73.3,0,0,1-73.1-73.1V216.2a144.6,144.6,0,0,1,11.5-56.6,147.5,147.5,0,0,1,77.8-77.9,145,145,0,0,1,56.7-11.4h15.8a145.1,145.1,0,0,1,56.7,11.5,147.6,147.6,0,0,1,77.8,77.8,145,145,0,0,1,11.5,56.6Zm53.2-40.1a40.3,40.3,0,0,1-40.2,40.2h-1.6V189.8h1.6A40.2,40.2,0,0,1,463.1,230Z"/></g></g></svg>