<svg xmlns="http://www.w3.org/2000/svg" viewBox="0 0 80 80"><defs><style>.cls-1{fill:#fff;}.cls-2{fill:none;}</style></defs><title>chat21-thik-balloon</title><g id="Livello_2" data-name="Livello 2"><g id="Livello_1-2" data-name="Livello 1"><path class="cls-1" d="M40,7.3C20.15,7.3,4,21.71,4,39.43A29.48,29.48,0,0,0,8.63,55.19a32.42,32.42,0,0,0,2.47,3.4L8.69,72.7l13.9-5.14A38.28,38.28,0,0,0,26.7,69.3,39.55,39.55,0,0,0,40,71.57c19.85,0,36-14.42,36-32.14S59.85,7.3,40,7.3ZM13.31,67.14,15,57.51l-.53-.6a28.75,28.75,0,0,1-2.74-3.65A25.86,25.86,0,0,1,7.62,39.43C7.62,23.71,22.14,10.91,40,10.91S72.38,23.71,72.38,39.43,57.86,68,40,68a35.94,35.94,0,0,1-12.09-2.06A34.23,34.23,0,0,1,23.49,64l-.66-.35Z"/><rect class="cls-2" width="80" height="80"/></g></g></svg>