<svg xmlns="http://www.w3.org/2000/svg" viewBox="0 0 80 80"><defs><style>.cls-1{fill:#fff;}.cls-2{fill:none;}</style></defs><title>chat21-full</title><g id="Livello_2" data-name="Livello 2"><g id="Livello_1-2" data-name="Livello 1"><path class="cls-1" d="M40,11.65c17.8,0,32.28,12.7,32.28,28.31S57.8,68.27,40,68.27a35.94,35.94,0,0,1-12.09-2.06,34.32,34.32,0,0,1-4.42-1.93l-1.07-.56-1.13.42L16.9,65.76l-3.05,1.13.51-3,.75-4.42.22-1.28-.86-1a28.52,28.52,0,0,1-2.72-3.63A25.58,25.58,0,0,1,7.72,40C7.72,24.35,22.2,11.65,40,11.65m0-2.72C20.7,8.93,5,22.85,5,40A28.16,28.16,0,0,0,9.45,55.08a31.15,31.15,0,0,0,3,4l-.75,4.42-1.3,7.6,7.47-2.76,4.39-1.62A36.92,36.92,0,0,0,27,68.77,38.74,38.74,0,0,0,40,71c19.3,0,35-13.92,35-31s-15.7-31-35-31Z"/><path class="cls-1" d="M20.62,54c3.11-3.77,9.05-11.5,12.21-15.7a9,9,0,0,0,2.4-5.23c0-2.12-1.6-4.29-5-4.29-2.26,0-4.2,1.6-5.28,2.78a.86.86,0,0,1-1.27,0l-2.26-2.26a.93.93,0,0,1,0-1.23s3.68-4.62,9.29-4.62c6.74,0,10.51,4.29,10.51,9.38,0,3.06-1.32,5-3.16,7.64-2,2.88-5.61,7.31-8.11,10.47H40.09a.93.93,0,0,1,.9.9v3.25a.93.93,0,0,1-.9.9H21.51a.9.9,0,0,1-.9-.9Z"/><path class="cls-1" d="M51.16,32.49l-4.15.9a.78.78,0,0,1-.94-.61l-.28-2.31a1,1,0,0,1,.24-.85l6.79-5.7h3.3a.89.89,0,0,1,.85.9V55.08a.89.89,0,0,1-.85.9H52.06a.9.9,0,0,1-.9-.9Z"/><rect class="cls-2" width="80" height="80"/></g></g></svg>