<svg xmlns="http://www.w3.org/2000/svg" viewBox="0 0 80 80"><defs><style>.cls-1{fill:#fff;}.cls-2{fill:none;}</style></defs><title>chat21-balloon</title><g id="Livello_2" data-name="Livello 2"><g id="Livello_1-2" data-name="Livello 1"><path class="cls-1" d="M40,11.65c17.8,0,32.28,12.7,32.28,28.31S57.8,68.27,40,68.27a35.94,35.94,0,0,1-12.09-2.06,34.32,34.32,0,0,1-4.42-1.93l-1.07-.56-1.13.42L16.9,65.76l-3.05,1.13.51-3,.75-4.42.22-1.28-.86-1a28.52,28.52,0,0,1-2.72-3.63A25.58,25.58,0,0,1,7.72,40C7.72,24.35,22.2,11.65,40,11.65m0-2.72C20.7,8.93,5,22.85,5,40A28.16,28.16,0,0,0,9.45,55.08a31.15,31.15,0,0,0,3,4l-.75,4.42-1.3,7.6,7.47-2.76,4.39-1.62A36.92,36.92,0,0,0,27,68.77,38.74,38.74,0,0,0,40,71c19.3,0,35-13.92,35-31s-15.7-31-35-31Z"/><rect class="cls-2" width="80" height="80"/></g></g></svg>