<svg xmlns="http://www.w3.org/2000/svg" viewBox="0 0 30 30"><defs><style>.cls-1{fill:#fff;}.cls-2{fill:none;}</style></defs><title>chat21-close</title><g id="Livello_2" data-name="Livello 2"><g id="Livello_1-2" data-name="Livello 1"><path class="cls-1" d="M17.74,15,28.13,4.6A1.93,1.93,0,1,0,25.4,1.87L15,12.26,4.6,1.87a1.93,1.93,0,0,0-2.74,0h0a1.93,1.93,0,0,0,0,2.74L12.26,15,1.87,25.4a1.93,1.93,0,0,0,0,2.74h0a1.93,1.93,0,0,0,2.74,0L15,17.74l10.4,10.4a1.93,1.93,0,0,0,2.74-2.74Z"/><rect class="cls-2" width="30" height="30"/></g></g></svg>